name GIL03_free4.mot
datacolumns 153
datarows 4
range 0.35833335 0.38333333
endheader

                time	           pelvis_tx	           pelvis_ty	           pelvis_tz	         pelvis_tilt	         pelvis_list	     pelvis_rotation	       hip_flexion_r	     hip_adduction_r	      hip_rotation_r	        knee_angle_r	       ankle_angle_r	    subtalar_angle_r	         mtp_angle_r	       hip_flexion_l	     hip_adduction_l	      hip_rotation_l	        knee_angle_l	       ankle_angle_l	    subtalar_angle_l	         mtp_angle_l	    lumbar_extension	      lumbar_bending	     lumbar_rotation	     ground_force_vx	     ground_force_vy	     ground_force_vz	     ground_force_px	     ground_force_py	     ground_force_pz	     ground_force_vx	     ground_force_vy	     ground_force_vz	     ground_force_px	     ground_force_py	     ground_force_pz	     ground_torque_x	     ground_torque_y	     ground_torque_z	     ground_torque_x	     ground_torque_y	     ground_torque_z	    ground_marker_px	    ground_marker_py	    ground_marker_pz	    ground_marker_px	    ground_marker_py	    ground_marker_pz	    ground_marker_px	    ground_marker_py	    ground_marker_pz	    ground_marker_px	    ground_marker_py	    ground_marker_pz	    ground_marker_px	    ground_marker_py	    ground_marker_pz	    ground_marker_px	    ground_marker_py	    ground_marker_pz	    ground_marker_px	    ground_marker_py	    ground_marker_pz	    ground_marker_px	    ground_marker_py	    ground_marker_pz	    ground_marker_px	    ground_marker_py	    ground_marker_pz	    ground_marker_px	    ground_marker_py	    ground_marker_pz	    ground_marker_px	    ground_marker_py	    ground_marker_pz	    ground_marker_px	    ground_marker_py	    ground_marker_pz	    ground_marker_px	    ground_marker_py	    ground_marker_pz	    ground_marker_px	    ground_marker_py	    ground_marker_pz	    ground_marker_px	    ground_marker_py	    ground_marker_pz	    ground_marker_px	    ground_marker_py	    ground_marker_pz	    ground_marker_px	    ground_marker_py	    ground_marker_pz	    ground_marker_px	    ground_marker_py	    ground_marker_pz	    ground_marker_px	    ground_marker_py	    ground_marker_pz	    ground_marker_px	    ground_marker_py	    ground_marker_pz	    ground_marker_px	    ground_marker_py	    ground_marker_pz	    ground_marker_px	    ground_marker_py	    ground_marker_pz	    ground_marker_px	    ground_marker_py	    ground_marker_pz	    ground_marker_px	    ground_marker_py	    ground_marker_pz	    ground_marker_px	    ground_marker_py	    ground_marker_pz	    ground_marker_px	    ground_marker_py	    ground_marker_pz	    ground_marker_px	    ground_marker_py	    ground_marker_pz	    ground_marker_px	    ground_marker_py	    ground_marker_pz	    ground_marker_px	    ground_marker_py	    ground_marker_pz	    ground_marker_px	    ground_marker_py	    ground_marker_pz	    ground_marker_px	    ground_marker_py	    ground_marker_pz	    ground_marker_px	    ground_marker_py	    ground_marker_pz	    ground_marker_px	    ground_marker_py	    ground_marker_pz	    ground_marker_px	    ground_marker_py	    ground_marker_pz	    ground_marker_px	    ground_marker_py	    ground_marker_pz	    ground_marker_px	    ground_marker_py	    ground_marker_pz	    ground_marker_px	    ground_marker_py	    ground_marker_pz	
          0.35833335	          0.28791785	          0.89968801	         -0.21738642	          3.03261185	         -3.74381256	          0.98394668	         -2.96374893	          6.64973688	          5.05110645	        -13.48971081	         13.83364391	          0.00000000	          0.00000000	         24.50990295	         -8.81421661	          7.93543720	        -42.17468643	          8.98694801	          0.00000000	          0.00000000	        -23.72904968	          1.02823663	          8.65816689	         20.62087383	        365.08138884	        -10.43015152	          0.17580170	          0.00000000	         -0.17375674	          0.00000000	          0.00000000	          0.00000000	          0.65435077	          0.00000000	         -0.28610803	          0.00000000	          1.42368225	          0.00000000	          0.00000000	          0.00000000	          0.00000000	          0.22991350	          0.83572906	         -0.21251412	          0.23654257	          0.82287484	         -0.15257372	          0.22349396	          0.81408858	         -0.26898748	          0.23591816	          0.45008874	         -0.17279251	          0.39363188	          0.48173788	         -0.31072500	          0.14234348	          0.06386360	         -0.18972330	          0.28873184	          0.10007642	         -0.35581279	          0.28791785	          0.89968801	         -0.21738642	          0.29062852	          0.90586179	         -0.11773186	          0.28520715	          0.89351416	         -0.31704098	          0.13080005	          0.92723262	         -0.19131805	          0.12978676	          0.92170280	         -0.24627973	          0.24800938	          0.44716278	         -0.11921787	          0.40317848	          0.49320769	         -0.36314213	          0.22642094	          0.44887602	         -0.21576944	          0.39442450	          0.46035826	         -0.26594576	          0.13590404	          0.06375982	         -0.15176578	          0.29044539	          0.10412394	         -0.39406106	          0.16255599	          0.07383277	         -0.21948208	          0.31314585	          0.10333347	         -0.33157328	          0.22094205	          1.33938253	         -0.19953640	          0.31941298	          1.25487685	         -0.16541731	          0.30194899	          1.25571752	         -0.27189565	          0.29646644	          1.26781094	         -0.22155875	          0.33117583	          1.09601557	         -0.22746186	          0.37523746	          0.62751973	         -0.17254278	          0.44196272	          0.68253118	         -0.26494017	          0.30351648	          0.67185229	         -0.11666060	          0.36703461	          0.69901448	         -0.32768586	          0.29759037	          0.58659750	         -0.11987763	          0.40487596	          0.62093288	         -0.32988259	          0.16456528	          0.17553402	         -0.07602097	          0.28368270	          0.23253675	         -0.44086197	          0.16720390	          0.18499352	         -0.11730072	          0.29825532	          0.22932313	         -0.40086508	          0.25391439	          0.04038561	         -0.14990728	          0.40517333	          0.06401616	         -0.38898864	
          0.36666667	          0.29788443	          0.89873773	         -0.21749002	          2.89144516	         -3.77636909	          1.09024584	         -3.72576427	          6.69602203	          4.93985271	        -13.11736870	         14.29228497	          0.00000000	          0.00000000	         25.11417007	         -8.59040546	          8.36831570	        -39.62427139	          8.32368279	          0.00000000	          0.00000000	        -23.61866188	          1.03554738	          8.83697701	         20.55007389	        365.58712625	        -12.51014903	          0.18136133	          0.00000000	         -0.17218727	          0.00000000	          0.00000000	          0.00000000	          0.65707935	          0.00000000	         -0.28571606	          0.00000000	          1.41313770	          0.00000000	          0.00000000	          0.00000000	          0.00000000	          0.23952746	          0.83501649	         -0.21287861	          0.24643517	          0.82207501	         -0.15255797	          0.23314065	          0.81329131	         -0.26894408	          0.23987068	          0.44936249	         -0.17283268	          0.40590304	          0.48228559	         -0.30966371	          0.14263555	          0.06386396	         -0.18985887	          0.32114232	          0.09500457	         -0.35424969	          0.29788443	          0.89873773	         -0.21749002	          0.30080387	          0.90493482	         -0.11778512	          0.29496500	          0.89254063	         -0.31719491	          0.14063033	          0.92670310	         -0.19159974	          0.13956185	          0.92115545	         -0.24655738	          0.25186795	          0.44623631	         -0.11924823	          0.41567519	          0.49382716	         -0.36202353	          0.23042217	          0.44826359	         -0.21552403	          0.40506536	          0.46066526	         -0.26489738	          0.13610615	          0.06383510	         -0.15191659	          0.32272547	          0.09906195	         -0.39250258	          0.16286936	          0.07369968	         -0.21956351	          0.34554344	          0.09965416	         -0.32984918	          0.23105641	          1.33846915	         -0.19908571	          0.32963237	          1.25376046	         -0.16555385	          0.31163904	          1.25472105	         -0.27198544	          0.30644873	          1.26682484	         -0.22155024	          0.34088302	          1.09494126	         -0.22782016	          0.38181919	          0.62470227	         -0.17241667	          0.45196587	          0.68328321	         -0.26369604	          0.31079027	          0.67020935	         -0.11671571	          0.37711430	          0.69920069	         -0.32698569	          0.30356285	          0.58506101	         -0.11978430	          0.41523749	          0.62116897	         -0.32897767	          0.16566539	          0.17544414	         -0.07606987	          0.30922997	          0.22698750	         -0.43991244	          0.16859664	          0.18478325	         -0.11725668	          0.32407933	          0.22453675	         -0.39984959	          0.25404182	          0.04029277	         -0.14989075	          0.43923303	          0.06354029	         -0.38574639	
          0.37500000	          0.30798298	          0.89771360	         -0.21757054	          2.76478481	         -3.81158304	          1.15947914	         -4.51825809	          6.74972725	          4.77521706	        -12.73385715	         14.74814129	          0.00000000	          0.00000000	         25.61485672	         -8.39052773	          8.75286770	        -36.99906158	          7.54547119	          0.00000000	          0.00000000	        -23.49503326	          1.08189917	          9.04976654	         20.31587141	        365.30935228	        -14.67299554	          0.18753784	          0.00000000	         -0.17042351	          0.00000000	          0.00000000	          0.00000000	          0.65983405	          0.00000000	         -0.28542633	          0.00000000	          1.40865088	          0.00000000	          0.00000000	          0.00000000	          0.00000000	          0.24929905	          0.83420426	         -0.21334502	          0.25644201	          0.82119578	         -0.15254040	          0.24297741	          0.81239456	         -0.26890564	          0.24386351	          0.44863075	         -0.17285205	          0.41785616	          0.48253164	         -0.30857784	          0.14296599	          0.06385525	         -0.18998881	          0.35345820	          0.09063745	         -0.35245532	          0.30798298	          0.89771360	         -0.21757054	          0.31104693	          0.90394890	         -0.11781173	          0.30491903	          0.89147830	         -0.31732935	          0.15059809	          0.92605215	         -0.19193789	          0.14947818	          0.92048955	         -0.24687406	          0.25567630	          0.44530898	         -0.11923839	          0.42785910	          0.49412537	         -0.36088252	          0.23462228	          0.44763559	         -0.21532109	          0.41481751	          0.46060377	         -0.26339737	          0.13630591	          0.06391285	         -0.15206927	          0.35486710	          0.09468964	         -0.39071554	          0.16322178	          0.07359187	         -0.21964240	          0.37777272	          0.09670237	         -0.32792136	          0.24112113	          1.33745170	         -0.19870499	          0.33984357	          1.25261760	         -0.16581099	          0.32136604	          1.25376439	         -0.27211738	          0.31643760	          1.26577628	         -0.22161929	          0.35074592	          1.09389889	         -0.22837663	          0.38847566	          0.62175053	         -0.17206001	          0.46185169	          0.68356389	         -0.26251176	          0.31805882	          0.66852450	         -0.11659943	          0.38708860	          0.69896626	         -0.32637137	          0.30950570	          0.58341867	         -0.11954214	          0.42523080	          0.62085640	         -0.32798889	          0.16668886	          0.17538835	         -0.07611153	          0.33461553	          0.22174938	         -0.43875667	          0.16977666	          0.18463673	         -0.11722913	          0.34986725	          0.21999393	         -0.39868999	          0.25416428	          0.04019959	         -0.14985010	          0.47293311	          0.06361356	         -0.38276687	
          0.38333333	          0.31819987	          0.89662099	         -0.21762085	          2.66022968	         -3.84333801	          1.17736912	         -5.35146570	          6.80679798	          4.59854317	        -12.33726025	         15.19421577	          0.00000000	          0.00000000	         26.00326157	         -8.22049713	          9.09143162	        -34.32080078	          6.67485046	          0.00000000	          0.00000000	        -23.35551453	          1.15557003	          9.31237316	         19.99145884	        364.54738622	        -16.54347292	          0.19422531	          0.00000000	         -0.16856659	          0.00000000	          0.00000000	          0.00000000	          0.66254492	          0.00000000	         -0.28526151	          0.00000000	          1.40204102	          0.00000000	          0.00000000	          0.00000000	          0.00000000	          0.25925457	          0.83329123	         -0.21384840	          0.26654357	          0.82023072	         -0.15253228	          0.25301653	          0.81139654	         -0.26888779	          0.24787469	          0.44790787	         -0.17287157	          0.42951784	          0.48245621	         -0.30748665	          0.14332114	          0.06385839	         -0.19012593	          0.38551030	          0.08699860	         -0.35045204	          0.31819987	          0.89662099	         -0.21762085	          0.32131690	          0.90290403	         -0.11780433	          0.31508282	          0.89033788	         -0.31743738	          0.16069637	          0.92526376	         -0.19234194	          0.15954816	          0.91968054	         -0.24723914	          0.25943628	          0.44439700	         -0.11921524	          0.43977073	          0.49408853	         -0.35973433	          0.23881675	          0.44719726	         -0.21526708	          0.42512390	          0.46004871	         -0.26237908	          0.13650362	          0.06401204	         -0.15223466	          0.38669065	          0.09102525	         -0.38872269	          0.16356529	          0.07352545	         -0.21973605	          0.40979266	          0.09452427	         -0.32586566	          0.25113705	          1.33632994	         -0.19830982	          0.35009408	          1.25137556	         -0.16611283	          0.33116776	          1.25276697	         -0.27222955	          0.32642448	          1.26468563	         -0.22176816	          0.36077395	          1.09280765	         -0.22904851	          0.39522469	          0.61870098	         -0.17155214	          0.47164431	          0.68336564	         -0.26136518	          0.32534027	          0.66677737	         -0.11629242	          0.39698198	          0.69816655	         -0.32585856	          0.31540310	          0.58182877	         -0.11920356	          0.43531731	          0.62029195	         -0.32716924	          0.16765769	          0.17537193	         -0.07616998	          0.35971379	          0.21685944	         -0.43738437	          0.17085181	          0.18457134	         -0.11724238	          0.37532535	          0.21585940	         -0.39737108	          0.25428376	          0.04011058	         -0.14979610	          0.50611472	          0.06424408	         -0.38002503	
